@startuml

class java.awt.image.BufferedImage {
}

class java.awt.Point {
}

class javax.swing.Timer {
}

class javax.swing.JFrame {
}

class javax.swing.JPanel {
	{method} #paintComponent ( g : java.awt.Graphics ) : void
}

abstract class org.tda553group22.lab3.main.CanLoadHelper {
	{field} #capacity : int
	{field} #cargo : java.util.List
	{method} +load ( load : org.tda553group22.lab3.main.Loadable ) : void
}


class org.tda553group22.lab3.main.CanLoadHelperFirstInFirstOut {
	{method} +unload () : java.util.Optional
}


class org.tda553group22.lab3.main.CanLoadHelperFirstInLastOut {
	{method} +unload () : java.util.Optional
}


class org.tda553group22.lab3.main.CanLoadHelperUnordered {
	{method} +unload ( load : org.tda553group22.lab3.main.Loadable ) : void
}


interface org.tda553group22.lab3.main.CanLoadOrdered {
	{method}  {abstract} +load ( load : org.tda553group22.lab3.main.Loadable ) : void
	{method}  {abstract} +unload () : java.util.Optional
}


interface org.tda553group22.lab3.main.CanLoadUnordered {
	{method}  {abstract} +load ( load : org.tda553group22.lab3.main.Loadable ) : void
	{method}  {abstract} +unload ( load : org.tda553group22.lab3.main.Loadable ) : void
}


abstract class org.tda553group22.lab3.main.Car {
	{field} #nrDoors : int
	{method} +getNrDoors () : int
}


class org.tda553group22.lab3.main.CarFerry {
	{field} -carLanes : int
	{field} -laneCanLoadHelpers : ArrayList<CanLoadHelperFirstInFirstOut>
	{method} +load ( load : org.tda553group22.lab3.main.Car , lane : int ) : void
	{method} +unload ( lane : int ) : java.util.Optional
	{method} #speedFactor () : double
}


class org.tda553group22.lab3.main.CarTransporter {
	{field} -canLoadHelper : CanLoadHelperFirstInLastOut<PersonCar>
	{field} -maxLoadDistance : double
	{field} -rampDown : boolean
	{method} +load ( load : org.tda553group22.lab3.main.PersonCar ) : void
	{method} +lowerRamp () : void
	{method} +move () : void
	{method} +raiseRamp () : void
	{method} +unload () : java.util.Optional
	{method} #speedFactor () : double
}


abstract class org.tda553group22.lab3.main.EngineVehicle {
	{field} #enginePower : double
	{method} +startEngine () : void
    {method} +stopEngine () : void
	{method} +gas ( amount : double ) : void
	{method} +brake ( amount : double ) : void
	{method} -incrementSpeed ( amount : double ) : void
	{method} -decrementSpeed ( amount : double ) : void
	{method}  {abstract} #speedFactor () : double
}


interface org.tda553group22.lab3.main.HasPosition {
	{method}  {abstract} +getPos () : org.tda553group22.lab3.math.Vector2
}


interface org.tda553group22.lab3.main.PositionFunctions {
}


interface org.tda553group22.lab3.main.Loadable {
}


interface org.tda553group22.lab3.main.Movable {
	{method}  {abstract} +move () : void
	{method}  {abstract} +turnLeft () : void
	{method}  {abstract} +turnRight () : void
}


abstract class org.tda553group22.lab3.main.PersonCar {
}


interface org.tda553group22.lab3.main.Positionable {
	{method}  {abstract} +setPos ( pos : org.tda553group22.lab3.math.Vector2 ) : void
}


class org.tda553group22.lab3.main.Saab95 {
	{field} -turboOn : boolean
	{method} +setTurboOn () : void
	{method} +setTurboOff () : void
	{method} #speedFactor () : double
}


class org.tda553group22.lab3.main.Scania {
	{method} #speedFactor () : double
}


abstract class org.tda553group22.lab3.main.Truck {
	{field} #bedAngle : double
	{field} #maxBedAngle : double
	{method} +lowerBed ( angle : double ) : void
	{method} +raiseBed ( angle : double ) : void
}


abstract class org.tda553group22.lab3.main.Vehicle {
	{field} -angle : double
	{field} +color : java.awt.Color
	{field} #currentSpeed : double
	{field} #modelName : String
	{method} +move () : void
	{method} +turnLeft () : void
	{method} +turnRight () : void
	{method} -turn ( angle : double ) : void
}


class org.tda553group22.lab3.main.Volvo240 {
	{field} {static} -trimFactor : double
	{method} #speedFactor () : double
}


class org.tda553group22.lab3.main.Workshop {
    {field} -canLoadHelper : CanLoadHelperUnordered
	{method} +load ( load : org.tda553group22.lab3.main.Car ) : void
	{method} +unload ( load : org.tda553group22.lab3.main.Car ) : void
}


class org.tda553group22.lab3.main.CarFactory {
	{method} {static} +createVolvo240 () : org.tda553group22.lab3.main.Car
	{method} {static} +createSaab95 () : org.tda553group22.lab3.main.Car
	{method} {static} +createScania () : org.tda553group22.lab3.main.Car
}


class org.tda553group22.lab3.main.CanLoadUnorderedFactory {
	{method} {static} +createVolvoWorkshop ( capacity : int, pos : org.tda553group22.lab3.math.Vector2 ) : org.tda553group22.lab3.main.CanLoadUnordered<org.tda553group22.lab3.main.Volvo240>
}


class org.tda553group22.lab3.main.WorkshopWithPosition {
	{field} -workshop : org.tda553group22.lab3.main.Workshop
	{field} -pos : org.tda553group22.lab3.math.Vector2
	{method} +load ( load : org.tda553group22.lab3.main.Car ) : void
	{method} +unload ( load : org.tda553group22.lab3.main.Car ) : void
	{method} +getPos () : org.tda553group22.lab3.ui.Vector2
	{method} +setPos () : org.tda553group22.lab3.ui.Vector2
}


interface org.tda553group22.lab3.ui.HasSprite {
	{method} +getSprite () : java.awt.image.BufferedImage
}


interface org.tda553group22.lab3.ui.IGameObject<T> {
	{method} +getInner () : T
}


class org.tda553group22.lab3.ui.GameObject<T extends org.tda553group22.lab3.main.PositionFunctions, org.tda553group22.lab3.main.HasSprite> {
	{field} -inner : T
	{method} +getInner () : T
	{method} +getSprite () : java.awt.image.BufferedImage
	{method} +getPos () : org.tda553group22.lab3.math.Vector2
	{method} +setPos ( pos : org.tda553group22.lab3.math.Vector2 ) : void
}


interface org.tda553group22.lab3.main.HasTurbo {
	{method} +setTurboOn () : void
	{method} +setTurboOff () : void
}


interface org.tda553group22.lab3.main.HasTruckBed {
	{method} +lowerBed ( angle : double ) : void
	{method} +raiseBed ( angle : double ) : void
}


class org.tda553group22.lab3.ui.IGameObjectFactory {
	{method} {static} +createVolvoWorkshop ( pos : org.tda553group22.lab3.math.Vector2, capacity : int ) : org.tda553group22.lab3.ui.IGameObject<CanLoadUnordered>
	{method} {static} +createVolvo240 ( pos : org.tda553group22.lab3.math.Vector2 ) : org.tda553group22.lab3.ui.IGameObject<Car>
	{method} {static} +createSaab95 ( pos : org.tda553group22.lab3.math.Vector2 ) : org.tda553group22.lab3.ui.IGameObject<Car>
	{method} {static} +createScania ( pos : org.tda553group22.lab3.math.Vector2 ) : org.tda553group22.lab3.ui.IGameObject<Car>
}


class org.tda553group22.lab3.ui.GameObjectWrapWithSprite<T extends org.tda553group22.lab3.main.PositionFunctions> {
	{field} -inner : T
	{field} -image : java.awt.image.BufferedImage
	{method} +getInner () : T
	{method} +getSprite () : java.awt.image.BufferedImage
	{method} +getPos () : org.tda553group22.lab3.math.Vector2
	{method} +setPos ( pos : org.tda553group22.lab3.math.Vector2 ) : void
}


class org.tda553group22.lab3.math.Vector2 {
	{field} +x : double
	{field} +y : double
	{method} +add ( other : org.tda553group22.lab3.math.Vector2 ) : org.tda553group22.lab3.math.Vector2
	{method} +clamp ( min : org.tda553group22.lab3.math.Vector2 , max : org.tda553group22.lab3.math.Vector2 ) : org.tda553group22.lab3.math.Vector2
	{method} +distance ( other : org.tda553group22.lab3.math.Vector2 ) : double
	{method} +div ( scalar : double ) : org.tda553group22.lab3.math.Vector2
	{method} +div ( other : org.tda553group22.lab3.math.Vector2 ) : org.tda553group22.lab3.math.Vector2
	{method} +equals ( o : Object ) : boolean
	{method} +inv () : org.tda553group22.lab3.math.Vector2
	{method} +magnitude () : double
	{method} +magnitudeSquared () : double
	{method} +mul ( scalar : double ) : org.tda553group22.lab3.math.Vector2
	{method} +mul ( other : org.tda553group22.lab3.math.Vector2 ) : org.tda553group22.lab3.math.Vector2
	{method} +normalized () : org.tda553group22.lab3.math.Vector2
	{method} +sub ( other : org.tda553group22.lab3.math.Vector2 ) : org.tda553group22.lab3.math.Vector2
	{method}  {static} +zero () : org.tda553group22.lab3.math.Vector2
}


class org.tda553group22.lab3.mathawtextensions.Vector2AwtExtensions {
	{method}  {static} +toPoint ( vector : org.tda553group22.lab3.math.Vector2 ) : java.awt.Point
}


class org.tda553group22.lab3.ui.CarController {
	{field} {static} +instance : org.tda553group22.lab3.ui.CarController
	{field} -delay : int
	{field} -timer : javax.swing.Timer
	{method} ~brake ( amount : int ) : void
	{method} ~gas ( amount : int ) : void
	{method} ~lowerBed () : void
	{method} ~raiseBed () : void
	{method} ~startEngine () : void
	{method} ~stopEngine () : void
	{method} ~turboOff () : void
	{method} ~turboOn () : void
}


class org.tda553group22.lab3.ui.CarModel {
	{field} {static} +instance : org.tda553group22.lab3.ui.CarController
	{field} -cars : List<IGameObject<Car>>
	{field} -workshops : List<IGameObject<CanLoadUnordered>>
}


class org.tda553group22.lab3.ui.CarView {
	{field} {static} -size : org.tda553group22.lab3.math.Vector2
	{field} -drawPanels : Map<Integer, org.tda553group22.lab3.ui.DrawPanel>
	{field} -controlPanel : javax.swing.JPanel
	{method} +addPanel ( id : int , pos : java.awt.Point , image : java.awt.image.BufferedImage ) : void
	{method} +getSize () : org.tda553group22.lab3.math.Vector2
	{method} +initComponents ( filename : String ) : void
	{method} +moveById ( id : int , pos : java.awt.Point ) : void
}


class org.tda553group22.lab3.ui.DrawPanel {
	{field} -image : java.awt.image.BufferedImage
	{field} -pos : java.awt.Point
	{method} #paintComponent ( g : java.awt.Graphics ) : void
	{method} +getPos () : org.tda553group22.lab3.ui.Vector2
	{method} +setPos () : org.tda553group22.lab3.ui.Vector2
}


class org.tda553group22.lab3.ui.Main {
	{method} {static} +main ( args;1 : [Ljava.lang.String; ) : void
}


class org.tda553group22.lab3.ui.ResourcesHandler {
	{field} {static} +instance : org.tda553group22.lab3.ui.CarController
	{field} {static} ~saabImage : java.awt.image.BufferedImage
	{field} {static} ~scaniaImage : java.awt.image.BufferedImage
	{field} {static} ~volvoImage : java.awt.image.BufferedImage
	{field} {static} ~volvoWorkshopImage : java.awt.image.BufferedImage
}




org.tda553group22.lab3.main.CanLoadHelperFirstInFirstOut --|>  org.tda553group22.lab3.main.CanLoadHelper
org.tda553group22.lab3.main.CanLoadHelperFirstInFirstOut ..|>  org.tda553group22.lab3.main.CanLoadOrdered
org.tda553group22.lab3.main.CanLoadHelperFirstInLastOut --|>  org.tda553group22.lab3.main.CanLoadHelper
org.tda553group22.lab3.main.CanLoadHelperFirstInLastOut ..|>  org.tda553group22.lab3.main.CanLoadOrdered
org.tda553group22.lab3.main.CanLoadHelperUnordered --|>  org.tda553group22.lab3.main.CanLoadHelper
org.tda553group22.lab3.main.CanLoadHelperUnordered ..|>  org.tda553group22.lab3.main.CanLoadUnordered
org.tda553group22.lab3.main.Car --|>  org.tda553group22.lab3.main.EngineVehicle
org.tda553group22.lab3.main.CarFerry --|>  org.tda553group22.lab3.main.EngineVehicle
org.tda553group22.lab3.main.CarTransporter --*  org.tda553group22.lab3.main.CanLoadHelperFirstInLastOut : canLoadHelper
org.tda553group22.lab3.main.CarTransporter --|>  org.tda553group22.lab3.main.Car
org.tda553group22.lab3.main.CarTransporter ..|>  org.tda553group22.lab3.main.CanLoadOrdered
org.tda553group22.lab3.main.EngineVehicle --|>  org.tda553group22.lab3.main.Vehicle
org.tda553group22.lab3.main.PositionFunctions ..|>  org.tda553group22.lab3.main.HasPosition
org.tda553group22.lab3.main.PositionFunctions ..|>  org.tda553group22.lab3.main.Positionable
org.tda553group22.lab3.main.Loadable ..|>  org.tda553group22.lab3.main.PositionFunctions
org.tda553group22.lab3.main.PersonCar --|>  org.tda553group22.lab3.main.Car
org.tda553group22.lab3.main.Saab95 --|>  org.tda553group22.lab3.main.PersonCar
org.tda553group22.lab3.main.Saab95 ..|>  org.tda553group22.lab3.main.HasTurbo
org.tda553group22.lab3.main.Scania --|>  org.tda553group22.lab3.main.Truck
org.tda553group22.lab3.main.Truck --|>  org.tda553group22.lab3.main.Car
org.tda553group22.lab3.main.Truck ..|>  org.tda553group22.lab3.main.HasTruckBed
org.tda553group22.lab3.main.Vehicle -->  org.tda553group22.lab3.math.Vector2 : pos
org.tda553group22.lab3.main.Vehicle ..|>  org.tda553group22.lab3.main.Loadable
org.tda553group22.lab3.main.Vehicle ..|>  org.tda553group22.lab3.main.Movable
org.tda553group22.lab3.main.Volvo240 --|>  org.tda553group22.lab3.main.PersonCar
org.tda553group22.lab3.main.Workshop --*  org.tda553group22.lab3.main.CanLoadHelperUnordered : canLoadHelper
org.tda553group22.lab3.main.Workshop ..|>  org.tda553group22.lab3.main.CanLoadUnordered
org.tda553group22.lab3.main.WorkshopWithPosition -->  org.tda553group22.lab3.math.Vector2 : pos
org.tda553group22.lab3.main.WorkshopWithPosition -->  org.tda553group22.lab3.main.Workshop
org.tda553group22.lab3.main.WorkshopWithPosition ..|>  org.tda553group22.lab3.main.PositionFunctions
org.tda553group22.lab3.main.WorkshopWithPosition ..|>  org.tda553group22.lab3.main.CanLoadUnordered
org.tda553group22.lab3.ui.CarController -->  org.tda553group22.lab3.ui.IGameObject : cars
org.tda553group22.lab3.ui.CarController -->  org.tda553group22.lab3.main.WorkshopWithPosition : volvoWorkshop
org.tda553group22.lab3.ui.CarController -->  org.tda553group22.lab3.ui.CarController : instance
org.tda553group22.lab3.ui.CarController -->  org.tda553group22.lab3.ui.CarView : frame
org.tda553group22.lab3.ui.CarView -->  org.tda553group22.lab3.ui.DrawPanel : drawPanels
org.tda553group22.lab3.ui.ResourcesHandler -->  org.tda553group22.lab3.ui.ResourcesHandler : instance
org.tda553group22.lab3.ui.DrawPanel ..|>  org.tda553group22.lab3.main.PositionFunctions

org.tda553group22.lab3.ui.CarController ..>  org.tda553group22.lab3.main.Car : use
org.tda553group22.lab3.ui.CarController ..>  org.tda553group22.lab3.ui.IGameObject : use
org.tda553group22.lab3.ui.CarController ..>  org.tda553group22.lab3.main.CanLoadUnordered : use
org.tda553group22.lab3.ui.CarController ..>  org.tda553group22.lab3.mathawtextensions.Vector2AwtExtensions : use
org.tda553group22.lab3.ui.CarController ..>  org.tda553group22.lab3.math.Vector2 : use
org.tda553group22.lab3.ui.CarController ..>  org.tda553group22.lab3.ui.CarModel : use
org.tda553group22.lab3.ui.CarModel ..>  org.tda553group22.lab3.ui.CarView : use
org.tda553group22.lab3.ui.CarView ..>  org.tda553group22.lab3.ui.CarController : use
org.tda553group22.lab3.ui.Main ..>  org.tda553group22.lab3.ui.CarController : use
org.tda553group22.lab3.ui.Main ..>  org.tda553group22.lab3.math.Vector2 : use
org.tda553group22.lab3.ui.IGameObjectFactory ..>  org.tda553group22.lab3.ui.ResourcesHandler : use

org.tda553group22.lab3.ui.CarController ..>  java.awt.image.BufferedImage : use
org.tda553group22.lab3.ui.CarController ..>  javax.swing.Timer : use
org.tda553group22.lab3.ui.CarController ..>  java.awt.Point : use
org.tda553group22.lab3.mathawtextensions.Vector2AwtExtensions ..>  java.awt.Point : use
org.tda553group22.lab3.ui.CarView --|>  javax.swing.JFrame
org.tda553group22.lab3.ui.CarView ..>  java.awt.Point : use
org.tda553group22.lab3.ui.DrawPanel --|>  javax.swing.JPanel
org.tda553group22.lab3.ui.DrawPanel -->  java.awt.image.BufferedImage : image
org.tda553group22.lab3.ui.DrawPanel -->  java.awt.Point : pos

org.tda553group22.lab3.ui.CarView -->  org.tda553group22.lab3.ui.CarView : instance
org.tda553group22.lab3.ui.CarModel -->  org.tda553group22.lab3.ui.CarModel : instance

org.tda553group22.lab3.main.CarTransporter ..>  org.tda553group22.lab3.main.PersonCar : use
org.tda553group22.lab3.main.CarFerry ..>  org.tda553group22.lab3.main.Car : use
org.tda553group22.lab3.main.Workshop ..>  org.tda553group22.lab3.main.Car : use
org.tda553group22.lab3.main.CanLoadHelper ..>  org.tda553group22.lab3.main.Loadable : use
org.tda553group22.lab3.main.CanLoadOrdered ..>  org.tda553group22.lab3.main.Loadable : use
org.tda553group22.lab3.main.CanLoadUnordered ..>  org.tda553group22.lab3.main.Loadable : use
org.tda553group22.lab3.main.CanLoadHelperUnordered ..>  org.tda553group22.lab3.main.Loadable : use
org.tda553group22.lab3.main.Positionable ..>  org.tda553group22.lab3.math.Vector2 : use
org.tda553group22.lab3.main.HasPosition ..>  org.tda553group22.lab3.math.Vector2 : use

org.tda553group22.lab3.main.CarFactory ..>  org.tda553group22.lab3.main.Volvo240 : use
org.tda553group22.lab3.main.CarFactory ..>  org.tda553group22.lab3.main.Saab95 : use
org.tda553group22.lab3.main.CarFactory ..>  org.tda553group22.lab3.main.Scania : use
org.tda553group22.lab3.main.CanLoadUnorderedFactory ..> org.tda553group22.lab3.main.CanLoadUnordered : use
org.tda553group22.lab3.main.CanLoadUnorderedFactory ..> org.tda553group22.lab3.main.WorkshopWithPosition : use
org.tda553group22.lab3.main.CanLoadUnorderedFactory ..> org.tda553group22.lab3.math.Vector2 : use

org.tda553group22.lab3.ui.GameObject ..|>  org.tda553group22.lab3.ui.IGameObject
org.tda553group22.lab3.ui.GameObject ..>  org.tda553group22.lab3.math.Vector2 : use
org.tda553group22.lab3.ui.GameObject ..>  org.tda553group22.lab3.main.PositionFunctions : use
org.tda553group22.lab3.ui.GameObject ..>  org.tda553group22.lab3.ui.HasSprite : use
org.tda553group22.lab3.ui.GameObjectWrapWithSprite ..|>  org.tda553group22.lab3.ui.IGameObject
org.tda553group22.lab3.ui.GameObjectWrapWithSprite ..>  org.tda553group22.lab3.math.Vector2 : use
org.tda553group22.lab3.ui.GameObjectWrapWithSprite ..>  org.tda553group22.lab3.main.PositionFunctions : use
org.tda553group22.lab3.ui.IGameObject ..|> org.tda553group22.lab3.main.PositionFunctions
org.tda553group22.lab3.ui.IGameObject ..|> org.tda553group22.lab3.ui.HasSprite
org.tda553group22.lab3.ui.IGameObjectFactory ..> org.tda553group22.lab3.ui.IGameObject
org.tda553group22.lab3.ui.IGameObjectFactory ..> org.tda553group22.lab3.ui.GameObjectWrapWithSprite
org.tda553group22.lab3.ui.IGameObjectFactory ..> org.tda553group22.lab3.ui.GameObject
org.tda553group22.lab3.ui.IGameObjectFactory ..> org.tda553group22.lab3.main.CarFactory
org.tda553group22.lab3.ui.IGameObjectFactory ..> org.tda553group22.lab3.main.CanLoadUnorderedFactory
org.tda553group22.lab3.ui.IGameObjectFactory ..> org.tda553group22.lab3.main.Loadable
org.tda553group22.lab3.ui.Main ..> org.tda553group22.lab3.ui.IGameObjectFactory

org.tda553group22.lab3.ui.CarController ..>  org.tda553group22.lab3.main.HasTurbo
org.tda553group22.lab3.ui.CarController ..>  org.tda553group22.lab3.main.HasTruckBed

@enduml
